<?xml version="1.0" encoding="UTF-8"?><svg id="a" xmlns="http://www.w3.org/2000/svg" viewBox="0 0 1288.73 138.86"><defs><style>.d{fill:#1a1a1a;}</style></defs><path class="d" d="M209.27,69.49C209.27,30.51,240.74.96,280.68.96c18.69,0,33.39,6.23,41.69,11.5v25.56c-10.38-8.79-26.2-15.5-42.01-15.5-27.48,0-46.65,20.13-46.65,46.96s19.17,46.96,46.65,46.96c15.97,0,31.63-6.71,42.01-15.34v25.56c-8.63,5.27-22.84,11.34-41.85,11.34-39.94,0-71.25-29.39-71.25-68.53Z"/><path class="d" d="M336.27,69.49c0-38.02,31.31-68.53,69.33-68.53s69.33,30.51,69.33,68.53-31.31,68.69-69.33,68.69-69.33-30.51-69.33-68.69ZM450.48,69.49c0-27.16-19.49-46.96-44.89-46.96s-44.89,19.81-44.89,46.96,19.49,47.12,44.89,47.12,44.89-19.81,44.89-47.12Z"/><path class="d" d="M497.76,135.3V3.68h42.01c44.57,0,71.89,30.19,71.89,65.81s-27.32,65.81-71.89,65.81h-42.01ZM521.4,114.06h18.37c30.19,0,47.6-19.49,47.6-44.57s-17.25-44.57-47.6-44.57h-18.37v89.14Z"/><path class="d" d="M634.66,135.3V3.68h82.11v21.41h-58.31v32.59h48.24v21.09h-48.24v35.14h60.7v21.41h-84.5Z"/><path class="d" d="M752.06,135.3V3.68h42.01c44.57,0,71.89,30.19,71.89,65.81s-27.32,65.81-71.89,65.81h-42.01ZM775.71,114.06h18.37c30.19,0,47.6-19.49,47.6-44.57s-17.25-44.57-47.6-44.57h-18.37v89.14Z"/><path class="d" d="M993.43,135.3h-29.39l-39.14-48.88h-8.47v48.88h-23.48V3.68h39.14c30.35,0,48.88,18.05,48.88,41.53,0,18.05-11.82,32.75-30.99,38.5l43.45,51.6ZM916.43,24.44v42.01h15.5c16.45,0,24.92-9.58,24.92-20.93s-8.31-21.09-24.92-21.09h-15.5Z"/><path class="d" d="M1019.78,135.3V3.68h23.64v131.63h-23.64Z"/><path class="d" d="M1082.4,135.3V3.68h82.11v21.57h-58.47v38.02h51.12v21.57h-51.12v50.48h-23.64Z"/><path class="d" d="M1226.8,135.3V25.24h-36.58V3.68h96.96v21.57h-36.74v110.06h-23.64Z"/><rect class="d" x=".92" y="123.97" width="152.41" height="3.96"/><rect class="d" x="42.82" y="116.59" width="110.53" height="18.71"/><rect class="d" x=".92" y="95.74" width="152.41" height="3.96"/><rect class="d" x="23.27" y="88.37" width="130.08" height="18.71"/><rect class="d" x=".92" y="67.52" width="152.41" height="3.96"/><rect class="d" x="58.24" y="60.14" width="95.11" height="18.71"/><rect class="d" x=".92" y="39.29" width="152.41" height="3.96"/><rect class="d" x="93.21" y="31.91" width="60.14" height="18.71"/><rect class="d" x=".92" y="11.06" width="152.41" height="3.96"/><rect class="d" x="128.18" y="3.68" width="25.17" height="18.71"/></svg>